<svg xmlns="http://www.w3.org/2000/svg" width="512" height="512" viewBox="0 0 512 512">
  <defs>
    <linearGradient id="g" x1="0" y1="0" x2="1" y2="1">
      <stop offset="0" stop-color="#6366f1"/>
      <stop offset="1" stop-color="#312e81"/>
    </linearGradient>
  </defs>
  <rect width="512" height="512" rx="112" fill="url(#g)"/>
  <g fill="none" stroke="#fff" stroke-width="22">
    <rect x="104" y="104" width="110" height="110" rx="18"/>
    <rect x="298" y="104" width="110" height="110" rx="18"/>
    <rect x="104" y="298" width="110" height="110" rx="18"/>
  </g>
  <g fill="#fff">
    <rect x="139" y="139" width="40" height="40" rx="6"/>
    <rect x="333" y="139" width="40" height="40" rx="6"/>
    <rect x="139" y="333" width="40" height="40" rx="6"/>
    <rect x="298" y="298" width="44" height="44" rx="6"/>
    <rect x="364" y="298" width="44" height="44" rx="6"/>
    <rect x="331" y="331" width="44" height="44" rx="6"/>
    <rect x="298" y="364" width="44" height="44" rx="6"/>
    <rect x="364" y="364" width="44" height="44" rx="6"/>
  </g>
  <rect x="64" y="248" width="384" height="16" rx="8" fill="#22c55e"/>
</svg>